TITLE ""
FILE "P1Q_t_0050-0059.mp3" MP3
  TRACK 01 AUDIO
    TITLE "P1Q_t_0050-0059_01"
    INDEX 01 00:00:00
  TRACK 02 AUDIO
    TITLE "P1Q_t_0050-0059_02"
    INDEX 01 00:01:16
  TRACK 03 AUDIO
    TITLE "P1Q_t_0050-0059_03"
    INDEX 01 00:01:39
  TRACK 04 AUDIO
    TITLE "P1Q_t_0050-0059_04"
    INDEX 01 00:05:02
  TRACK 05 AUDIO
    TITLE "P1Q_t_0050-0059_05"
    INDEX 01 00:05:21
  TRACK 06 AUDIO
    TITLE "P1Q_t_0050-0059_06"
    INDEX 01 00:11:59
  TRACK 07 AUDIO
    TITLE "P1Q_t_0050-0059_07"
    INDEX 01 00:12:31
  TRACK 08 AUDIO
    TITLE "P1Q_t_0050-0059_08"
    INDEX 01 00:13:36
  TRACK 09 AUDIO
    TITLE "P1Q_t_0050-0059_09"
    INDEX 01 00:13:62
  TRACK 10 AUDIO
    TITLE "P1Q_t_0050-0059_10"
    INDEX 01 00:16:33
  TRACK 11 AUDIO
    TITLE "P1Q_t_0050-0059_11"
    INDEX 01 00:16:52
  TRACK 12 AUDIO
    TITLE "P1Q_t_0050-0059_12"
    INDEX 01 00:21:10
  TRACK 13 AUDIO
    TITLE "P1Q_t_0050-0059_13"
    INDEX 01 00:21:58
  TRACK 14 AUDIO
    TITLE "P1Q_t_0050-0059_14"
    INDEX 01 00:22:65
  TRACK 15 AUDIO
    TITLE "P1Q_t_0050-0059_15"
    INDEX 01 00:23:11
  TRACK 16 AUDIO
    TITLE "P1Q_t_0050-0059_16"
    INDEX 01 00:25:46
  TRACK 17 AUDIO
    TITLE "P1Q_t_0050-0059_17"
    INDEX 01 00:25:63
  TRACK 18 AUDIO
    TITLE "P1Q_t_0050-0059_18"
    INDEX 01 00:30:37
  TRACK 19 AUDIO
    TITLE "P1Q_t_0050-0059_19"
    INDEX 01 00:31:07
  TRACK 20 AUDIO
    TITLE "P1Q_t_0050-0059_20"
    INDEX 01 00:32:18
  TRACK 21 AUDIO
    TITLE "P1Q_t_0050-0059_21"
    INDEX 01 00:32:42
  TRACK 22 AUDIO
    TITLE "P1Q_t_0050-0059_22"
    INDEX 01 00:34:60
  TRACK 23 AUDIO
    TITLE "P1Q_t_0050-0059_23"
    INDEX 01 00:35:05
  TRACK 24 AUDIO
    TITLE "P1Q_t_0050-0059_24"
    INDEX 01 00:40:39
  TRACK 25 AUDIO
    TITLE "P1Q_t_0050-0059_25"
    INDEX 01 00:41:09
  TRACK 26 AUDIO
    TITLE "P1Q_t_0050-0059_26"
    INDEX 01 00:42:30
  TRACK 27 AUDIO
    TITLE "P1Q_t_0050-0059_27"
    INDEX 01 00:42:54
  TRACK 28 AUDIO
    TITLE "P1Q_t_0050-0059_28"
    INDEX 01 00:46:40
  TRACK 29 AUDIO
    TITLE "P1Q_t_0050-0059_29"
    INDEX 01 00:46:59
  TRACK 30 AUDIO
    TITLE "P1Q_t_0050-0059_30"
    INDEX 01 00:51:72
  TRACK 31 AUDIO
    TITLE "P1Q_t_0050-0059_31"
    INDEX 01 00:52:44
  TRACK 32 AUDIO
    TITLE "P1Q_t_0050-0059_32"
    INDEX 01 00:53:63
  TRACK 33 AUDIO
    TITLE "P1Q_t_0050-0059_33"
    INDEX 01 00:54:08
  TRACK 34 AUDIO
    TITLE "P1Q_t_0050-0059_34"
    INDEX 01 00:56:15
  TRACK 35 AUDIO
    TITLE "P1Q_t_0050-0059_35"
    INDEX 01 00:56:34
  TRACK 36 AUDIO
    TITLE "P1Q_t_0050-0059_36"
    INDEX 01 01:02:17
  TRACK 37 AUDIO
    TITLE "P1Q_t_0050-0059_37"
    INDEX 01 01:02:62
  TRACK 38 AUDIO
    TITLE "P1Q_t_0050-0059_38"
    INDEX 01 01:04:01
  TRACK 39 AUDIO
    TITLE "P1Q_t_0050-0059_39"
    INDEX 01 01:04:20
  TRACK 40 AUDIO
    TITLE "P1Q_t_0050-0059_40"
    INDEX 01 01:06:37
  TRACK 41 AUDIO
    TITLE "P1Q_t_0050-0059_41"
    INDEX 01 01:06:58
  TRACK 42 AUDIO
    TITLE "P1Q_t_0050-0059_42"
    INDEX 01 01:11:42
  TRACK 43 AUDIO
    TITLE "P1Q_t_0050-0059_43"
    INDEX 01 01:12:14
  TRACK 44 AUDIO
    TITLE "P1Q_t_0050-0059_44"
    INDEX 01 01:13:19
  TRACK 45 AUDIO
    TITLE "P1Q_t_0050-0059_45"
    INDEX 01 01:13:43
  TRACK 46 AUDIO
    TITLE "P1Q_t_0050-0059_46"
    INDEX 01 01:15:69
  TRACK 47 AUDIO
    TITLE "P1Q_t_0050-0059_47"
    INDEX 01 01:16:15
  TRACK 48 AUDIO
    TITLE "P1Q_t_0050-0059_48"
    INDEX 01 01:21:17
  TRACK 49 AUDIO
    TITLE "P1Q_t_0050-0059_49"
    INDEX 01 01:21:62
  TRACK 50 AUDIO
    TITLE "P1Q_t_0050-0059_50"
    INDEX 01 01:22:71
  TRACK 51 AUDIO
    TITLE "P1Q_t_0050-0059_51"
    INDEX 01 01:23:16
  TRACK 52 AUDIO
    TITLE "P1Q_t_0050-0059_52"
    INDEX 01 01:25:42
  TRACK 53 AUDIO
    TITLE "P1Q_t_0050-0059_53"
    INDEX 01 01:25:61
  TRACK 54 AUDIO
    TITLE "P1Q_t_0050-0059_54"
    INDEX 01 01:29:47
  TRACK 55 AUDIO
    TITLE "P1Q_t_0050-0059_55"
    INDEX 01 01:30:18
  TRACK 56 AUDIO
    TITLE "P1Q_t_0050-0059_56"
    INDEX 01 01:31:37
  TRACK 57 AUDIO
    TITLE "P1Q_t_0050-0059_57"
    INDEX 01 01:31:58
  TRACK 58 AUDIO
    TITLE "P1Q_t_0050-0059_58"
    INDEX 01 01:36:53
  TRACK 59 AUDIO
    TITLE "P1Q_t_0050-0059_59"
    INDEX 01 01:36:73
  TRACK 60 AUDIO
    TITLE "P1Q_t_0050-0059_60"
    INDEX 01 01:42:19
